<mxfile host="app.diagrams.net" modified="2024-07-19T03:50:43.020Z" agent="Mozilla/5.0 (Windows NT 10.0; Win64; x64) AppleWebKit/537.36 (KHTML, like Gecko) Chrome/126.0.0.0 Safari/537.36" etag="YsbKUtcqpJkyDyoqdjgz" version="24.7.1" type="github">
  <diagram name="Page-1" id="c7488fd3-1785-93aa-aadb-54a6760d102a">
    <mxGraphModel dx="1050" dy="564" grid="1" gridSize="10" guides="1" tooltips="1" connect="1" arrows="1" fold="1" page="1" pageScale="1" pageWidth="1100" pageHeight="850" background="none" math="0" shadow="0">
      <root>
        <mxCell id="0" />
        <mxCell id="1" parent="0" />
        <mxCell id="9-fY0C1AB6wvFSsJPHex-8" style="edgeStyle=orthogonalEdgeStyle;rounded=0;orthogonalLoop=1;jettySize=auto;html=1;" edge="1" parent="1" source="9-fY0C1AB6wvFSsJPHex-1" target="9-fY0C1AB6wvFSsJPHex-3">
          <mxGeometry relative="1" as="geometry">
            <mxPoint x="230" y="215" as="targetPoint" />
          </mxGeometry>
        </mxCell>
        <mxCell id="9-fY0C1AB6wvFSsJPHex-1" value="Start" style="ellipse;whiteSpace=wrap;html=1;" vertex="1" parent="1">
          <mxGeometry x="50" y="190" width="120" height="50" as="geometry" />
        </mxCell>
        <mxCell id="9-fY0C1AB6wvFSsJPHex-9" style="edgeStyle=orthogonalEdgeStyle;rounded=0;orthogonalLoop=1;jettySize=auto;html=1;" edge="1" parent="1" source="9-fY0C1AB6wvFSsJPHex-3" target="9-fY0C1AB6wvFSsJPHex-5">
          <mxGeometry relative="1" as="geometry">
            <mxPoint x="470" y="215" as="targetPoint" />
          </mxGeometry>
        </mxCell>
        <mxCell id="9-fY0C1AB6wvFSsJPHex-3" value="Gather the Laundry" style="rounded=0;whiteSpace=wrap;html=1;" vertex="1" parent="1">
          <mxGeometry x="250" y="192.5" width="130" height="45" as="geometry" />
        </mxCell>
        <mxCell id="9-fY0C1AB6wvFSsJPHex-12" style="edgeStyle=orthogonalEdgeStyle;rounded=0;orthogonalLoop=1;jettySize=auto;html=1;" edge="1" parent="1" source="9-fY0C1AB6wvFSsJPHex-5" target="9-fY0C1AB6wvFSsJPHex-11">
          <mxGeometry relative="1" as="geometry">
            <Array as="points">
              <mxPoint x="555" y="340" />
              <mxPoint x="555" y="340" />
            </Array>
          </mxGeometry>
        </mxCell>
        <mxCell id="9-fY0C1AB6wvFSsJPHex-14" style="edgeStyle=orthogonalEdgeStyle;rounded=0;orthogonalLoop=1;jettySize=auto;html=1;" edge="1" parent="1" source="9-fY0C1AB6wvFSsJPHex-5" target="9-fY0C1AB6wvFSsJPHex-10">
          <mxGeometry relative="1" as="geometry" />
        </mxCell>
        <mxCell id="9-fY0C1AB6wvFSsJPHex-5" value="Does the Laundry need separating?" style="rhombus;align=center;whiteSpace=wrap;html=1;labelBorderColor=none;fontSize=10;" vertex="1" parent="1">
          <mxGeometry x="490" y="150" width="130" height="130" as="geometry" />
        </mxCell>
        <mxCell id="9-fY0C1AB6wvFSsJPHex-18" style="edgeStyle=orthogonalEdgeStyle;rounded=0;orthogonalLoop=1;jettySize=auto;html=1;" edge="1" parent="1" source="9-fY0C1AB6wvFSsJPHex-10" target="9-fY0C1AB6wvFSsJPHex-17">
          <mxGeometry relative="1" as="geometry" />
        </mxCell>
        <mxCell id="9-fY0C1AB6wvFSsJPHex-10" value="Yes" style="text;html=1;align=center;verticalAlign=middle;resizable=0;points=[];autosize=1;strokeColor=none;fillColor=none;" vertex="1" parent="1">
          <mxGeometry x="660" y="200" width="40" height="30" as="geometry" />
        </mxCell>
        <mxCell id="9-fY0C1AB6wvFSsJPHex-21" style="edgeStyle=orthogonalEdgeStyle;rounded=0;orthogonalLoop=1;jettySize=auto;html=1;entryX=0.5;entryY=0;entryDx=0;entryDy=0;" edge="1" parent="1" source="9-fY0C1AB6wvFSsJPHex-11" target="9-fY0C1AB6wvFSsJPHex-19">
          <mxGeometry relative="1" as="geometry" />
        </mxCell>
        <mxCell id="9-fY0C1AB6wvFSsJPHex-11" value="No" style="text;html=1;align=center;verticalAlign=middle;resizable=0;points=[];autosize=1;strokeColor=none;fillColor=none;" vertex="1" parent="1">
          <mxGeometry x="535" y="318" width="40" height="30" as="geometry" />
        </mxCell>
        <mxCell id="9-fY0C1AB6wvFSsJPHex-25" style="edgeStyle=orthogonalEdgeStyle;rounded=0;orthogonalLoop=1;jettySize=auto;html=1;entryX=0.5;entryY=0;entryDx=0;entryDy=0;" edge="1" parent="1" source="9-fY0C1AB6wvFSsJPHex-17" target="9-fY0C1AB6wvFSsJPHex-23">
          <mxGeometry relative="1" as="geometry" />
        </mxCell>
        <mxCell id="9-fY0C1AB6wvFSsJPHex-17" value="Organise laundry into correct piles&amp;nbsp;" style="rounded=0;whiteSpace=wrap;html=1;" vertex="1" parent="1">
          <mxGeometry x="760" y="180" width="170" height="70" as="geometry" />
        </mxCell>
        <mxCell id="9-fY0C1AB6wvFSsJPHex-19" value="Wash clothes in washing machine" style="rounded=1;whiteSpace=wrap;html=1;absoluteArcSize=1;arcSize=14;strokeWidth=2;" vertex="1" parent="1">
          <mxGeometry x="495" y="390" width="120" height="60" as="geometry" />
        </mxCell>
        <mxCell id="9-fY0C1AB6wvFSsJPHex-23" value="Wash clothes in washing machine" style="rounded=1;whiteSpace=wrap;html=1;absoluteArcSize=1;arcSize=14;strokeWidth=2;" vertex="1" parent="1">
          <mxGeometry x="785" y="390" width="120" height="60" as="geometry" />
        </mxCell>
        <mxCell id="9-fY0C1AB6wvFSsJPHex-31" style="edgeStyle=orthogonalEdgeStyle;rounded=0;orthogonalLoop=1;jettySize=auto;html=1;" edge="1" parent="1" source="9-fY0C1AB6wvFSsJPHex-26" target="9-fY0C1AB6wvFSsJPHex-30">
          <mxGeometry relative="1" as="geometry" />
        </mxCell>
        <mxCell id="9-fY0C1AB6wvFSsJPHex-32" style="edgeStyle=orthogonalEdgeStyle;rounded=0;orthogonalLoop=1;jettySize=auto;html=1;" edge="1" parent="1" source="9-fY0C1AB6wvFSsJPHex-26" target="9-fY0C1AB6wvFSsJPHex-29">
          <mxGeometry relative="1" as="geometry" />
        </mxCell>
        <mxCell id="9-fY0C1AB6wvFSsJPHex-26" value="&lt;div style=&quot;font-size: 11px;&quot;&gt;&lt;span style=&quot;background-color: initial; font-size: 11px;&quot;&gt;&lt;font style=&quot;font-size: 11px;&quot;&gt;Do you want to use the dryer?&lt;/font&gt;&lt;/span&gt;&lt;/div&gt;" style="strokeWidth=2;html=1;shape=mxgraph.flowchart.decision;whiteSpace=wrap;align=center;verticalAlign=middle;fontSize=11;spacing=0;" vertex="1" parent="1">
          <mxGeometry x="600" y="490" width="190" height="150" as="geometry" />
        </mxCell>
        <mxCell id="9-fY0C1AB6wvFSsJPHex-27" style="edgeStyle=orthogonalEdgeStyle;rounded=0;orthogonalLoop=1;jettySize=auto;html=1;entryX=1;entryY=0.5;entryDx=0;entryDy=0;entryPerimeter=0;" edge="1" parent="1" source="9-fY0C1AB6wvFSsJPHex-23" target="9-fY0C1AB6wvFSsJPHex-26">
          <mxGeometry relative="1" as="geometry" />
        </mxCell>
        <mxCell id="9-fY0C1AB6wvFSsJPHex-28" style="edgeStyle=orthogonalEdgeStyle;rounded=0;orthogonalLoop=1;jettySize=auto;html=1;entryX=0;entryY=0.5;entryDx=0;entryDy=0;entryPerimeter=0;" edge="1" parent="1" source="9-fY0C1AB6wvFSsJPHex-19" target="9-fY0C1AB6wvFSsJPHex-26">
          <mxGeometry relative="1" as="geometry" />
        </mxCell>
        <mxCell id="9-fY0C1AB6wvFSsJPHex-37" style="edgeStyle=orthogonalEdgeStyle;rounded=0;orthogonalLoop=1;jettySize=auto;html=1;" edge="1" parent="1" source="9-fY0C1AB6wvFSsJPHex-29" target="9-fY0C1AB6wvFSsJPHex-33">
          <mxGeometry relative="1" as="geometry" />
        </mxCell>
        <mxCell id="9-fY0C1AB6wvFSsJPHex-29" value="Yes" style="text;html=1;align=center;verticalAlign=middle;resizable=0;points=[];autosize=1;strokeColor=none;fillColor=none;" vertex="1" parent="1">
          <mxGeometry x="790" y="670" width="40" height="30" as="geometry" />
        </mxCell>
        <mxCell id="9-fY0C1AB6wvFSsJPHex-36" style="edgeStyle=orthogonalEdgeStyle;rounded=0;orthogonalLoop=1;jettySize=auto;html=1;entryX=0.5;entryY=0;entryDx=0;entryDy=0;" edge="1" parent="1" source="9-fY0C1AB6wvFSsJPHex-30" target="9-fY0C1AB6wvFSsJPHex-35">
          <mxGeometry relative="1" as="geometry" />
        </mxCell>
        <mxCell id="9-fY0C1AB6wvFSsJPHex-30" value="No" style="text;html=1;align=center;verticalAlign=middle;resizable=0;points=[];autosize=1;strokeColor=none;fillColor=none;" vertex="1" parent="1">
          <mxGeometry x="580" y="670" width="40" height="30" as="geometry" />
        </mxCell>
        <mxCell id="9-fY0C1AB6wvFSsJPHex-33" value="Place laundry in dryer and start cycle" style="rounded=1;whiteSpace=wrap;html=1;absoluteArcSize=1;arcSize=14;strokeWidth=2;" vertex="1" parent="1">
          <mxGeometry x="745" y="730" width="130" height="60" as="geometry" />
        </mxCell>
        <mxCell id="9-fY0C1AB6wvFSsJPHex-35" value="Hang laundry on clothes line" style="rounded=1;whiteSpace=wrap;html=1;absoluteArcSize=1;arcSize=14;strokeWidth=2;" vertex="1" parent="1">
          <mxGeometry x="535" y="730" width="130" height="60" as="geometry" />
        </mxCell>
        <mxCell id="9-fY0C1AB6wvFSsJPHex-43" style="edgeStyle=orthogonalEdgeStyle;rounded=0;orthogonalLoop=1;jettySize=auto;html=1;" edge="1" parent="1" source="9-fY0C1AB6wvFSsJPHex-38" target="9-fY0C1AB6wvFSsJPHex-40">
          <mxGeometry relative="1" as="geometry" />
        </mxCell>
        <mxCell id="9-fY0C1AB6wvFSsJPHex-44" style="edgeStyle=orthogonalEdgeStyle;rounded=0;orthogonalLoop=1;jettySize=auto;html=1;" edge="1" parent="1" source="9-fY0C1AB6wvFSsJPHex-38" target="9-fY0C1AB6wvFSsJPHex-39">
          <mxGeometry relative="1" as="geometry" />
        </mxCell>
        <mxCell id="9-fY0C1AB6wvFSsJPHex-38" value="Are the clothes dry?" style="strokeWidth=2;html=1;shape=mxgraph.flowchart.decision;whiteSpace=wrap;" vertex="1" parent="1">
          <mxGeometry x="650" y="820" width="100" height="100" as="geometry" />
        </mxCell>
        <mxCell id="9-fY0C1AB6wvFSsJPHex-49" style="edgeStyle=orthogonalEdgeStyle;rounded=0;orthogonalLoop=1;jettySize=auto;html=1;" edge="1" parent="1" source="9-fY0C1AB6wvFSsJPHex-39" target="9-fY0C1AB6wvFSsJPHex-46">
          <mxGeometry relative="1" as="geometry" />
        </mxCell>
        <mxCell id="9-fY0C1AB6wvFSsJPHex-39" value="Yes" style="text;html=1;align=center;verticalAlign=middle;resizable=0;points=[];autosize=1;strokeColor=none;fillColor=none;" vertex="1" parent="1">
          <mxGeometry x="760" y="930" width="40" height="30" as="geometry" />
        </mxCell>
        <mxCell id="9-fY0C1AB6wvFSsJPHex-48" style="edgeStyle=orthogonalEdgeStyle;rounded=0;orthogonalLoop=1;jettySize=auto;html=1;" edge="1" parent="1" source="9-fY0C1AB6wvFSsJPHex-40" target="9-fY0C1AB6wvFSsJPHex-47">
          <mxGeometry relative="1" as="geometry" />
        </mxCell>
        <mxCell id="9-fY0C1AB6wvFSsJPHex-40" value="No" style="text;html=1;align=center;verticalAlign=middle;resizable=0;points=[];autosize=1;strokeColor=none;fillColor=none;" vertex="1" parent="1">
          <mxGeometry x="600" y="930" width="40" height="30" as="geometry" />
        </mxCell>
        <mxCell id="9-fY0C1AB6wvFSsJPHex-41" style="edgeStyle=orthogonalEdgeStyle;rounded=0;orthogonalLoop=1;jettySize=auto;html=1;entryX=0;entryY=0.5;entryDx=0;entryDy=0;entryPerimeter=0;" edge="1" parent="1" source="9-fY0C1AB6wvFSsJPHex-35" target="9-fY0C1AB6wvFSsJPHex-38">
          <mxGeometry relative="1" as="geometry" />
        </mxCell>
        <mxCell id="9-fY0C1AB6wvFSsJPHex-42" style="edgeStyle=orthogonalEdgeStyle;rounded=0;orthogonalLoop=1;jettySize=auto;html=1;entryX=1;entryY=0.5;entryDx=0;entryDy=0;entryPerimeter=0;" edge="1" parent="1" source="9-fY0C1AB6wvFSsJPHex-33" target="9-fY0C1AB6wvFSsJPHex-38">
          <mxGeometry relative="1" as="geometry" />
        </mxCell>
        <mxCell id="9-fY0C1AB6wvFSsJPHex-46" value="Fold and put away" style="rounded=1;whiteSpace=wrap;html=1;absoluteArcSize=1;arcSize=14;strokeWidth=2;" vertex="1" parent="1">
          <mxGeometry x="725" y="990" width="110" height="60" as="geometry" />
        </mxCell>
        <mxCell id="9-fY0C1AB6wvFSsJPHex-51" style="edgeStyle=orthogonalEdgeStyle;rounded=0;orthogonalLoop=1;jettySize=auto;html=1;" edge="1" parent="1" source="9-fY0C1AB6wvFSsJPHex-47" target="9-fY0C1AB6wvFSsJPHex-50">
          <mxGeometry relative="1" as="geometry" />
        </mxCell>
        <mxCell id="9-fY0C1AB6wvFSsJPHex-47" value="Leave to dry and then fold and put away" style="rounded=1;whiteSpace=wrap;html=1;absoluteArcSize=1;arcSize=14;strokeWidth=2;" vertex="1" parent="1">
          <mxGeometry x="565" y="990" width="110" height="60" as="geometry" />
        </mxCell>
        <mxCell id="9-fY0C1AB6wvFSsJPHex-50" value="End" style="strokeWidth=2;html=1;shape=mxgraph.flowchart.terminator;whiteSpace=wrap;" vertex="1" parent="1">
          <mxGeometry x="650" y="1110" width="100" height="60" as="geometry" />
        </mxCell>
        <mxCell id="9-fY0C1AB6wvFSsJPHex-52" style="edgeStyle=orthogonalEdgeStyle;rounded=0;orthogonalLoop=1;jettySize=auto;html=1;entryX=0.5;entryY=0;entryDx=0;entryDy=0;entryPerimeter=0;" edge="1" parent="1" source="9-fY0C1AB6wvFSsJPHex-46" target="9-fY0C1AB6wvFSsJPHex-50">
          <mxGeometry relative="1" as="geometry" />
        </mxCell>
      </root>
    </mxGraphModel>
  </diagram>
</mxfile>
